PathFileType   4   (X/Y/Z)
DataRate	CameraRate	NumFrames	NumMarkers	Units	OrigDataRate	OrigDataStartFrame	OrigNumFrames
120.0	120.0	11	37	mm	120.0	1	114
Frame#	Time	midhip	hip_r	hip_l	knee_r	knee_l	ankle_r	ankle_l	midasis	asis_r	asis_l	psis_r	psis_l	epicondLat_r	epicondLat_l	epicondMed_r	epicondMed_l	malleolusLat_r	malleolusLat_l	malleolusMedv_r	malleolusMedv_l	neck	subclavicle_r	subclavicle_l	sternalnotch	xyphoidprocess	thighwand_r	thighwand_l	upperleg1_r	upperleg1_l	upperleg2_r	upperleg2_l	shankwand_r	shankwand_l	lowerleg1_r	lowerleg1_l	toe_r	toe_l
 	 	X1	Y1	Z1	X2	Y2	Z2	X3	Y3	Z3	X4	Y4	Z4	X5	Y5	Z5	X6	Y6	Z6	X7	Y7	Z7	X8	Y8	Z8	X9	Y9	Z9	X10	Y10	Z10	X11	Y11	Z11	X12	Y12	Z12	X13	Y13	Z13	X14	Y14	Z14	X15	Y15	Z15	X16	Y16	Z16	X17	Y17	Z17	X18	Y18	Z18	X19	Y19	Z19	X20	Y20	Z20	X21	Y21	Z21	X22	Y22	Z22	X23	Y23	Z23	X24	Y24	Z24	X25	Y25	Z25	X26	Y26	Z26	X27	Y27	Z27	X28	Y28	Z28	X29	Y29	Z29	X30	Y30	Z30	X31	Y31	Z31	X32	Y32	Z32	X33	Y33	Z33	X34	Y34	Z34	X35	Y35	Z35	X36	Y36	Z36	X37	Y37	Z37

	1	0.11667	-39.689	754.051	-279.765	-69.450	752.945	-203.215	-50.142	762.837	-357.325	-136.898	377.694	-174.532	100.934	424.517	-331.404	-422.894	160.818	-199.581	126.706	57.828	-313.351	65.637	831.256	-259.846	50.663	823.585	-140.324	80.611	838.928	-379.369	-181.220	898.154	-246.692	-179.450	899.381	-300.561	-146.577	384.822	-104.050	113.820	424.883	-401.732	-105.673	366.090	-255.647	87.271	406.602	-244.530	-435.607	173.656	-165.584	117.770	55.309	-351.744	-404.637	152.872	-230.888	119.560	74.376	-274.106	-153.251	1322.622	-275.395	-19.334	1264.512	-242.816	-23.062	1265.709	-326.381	-38.125	1258.899	-296.060	18.652	1188.808	-298.448	34.661	515.843	-81.172	190.077	652.469	-317.932	5.628	537.383	-112.277	146.881	649.172	-336.540	-24.146	466.298	-121.296	159.818	577.713	-328.605	-261.695	189.383	-142.322	119.044	156.349	-422.793	-284.709	221.073	-163.274	114.987	171.061	-378.245	-416.830	59.539	-206.083	233.588	48.936	-325.250
	2	0.12500	-27.227	755.703	-281.882	-56.590	754.040	-205.116	-38.012	764.573	-359.272	-114.715	375.812	-172.603	106.913	424.992	-332.302	-405.465	166.276	-198.820	127.220	57.813	-313.231	77.851	833.232	-262.060	63.517	825.105	-143.124	92.184	841.359	-380.997	-169.260	898.490	-246.804	-167.764	900.449	-300.680	-124.432	383.360	-102.169	120.165	425.068	-402.563	-80.737	361.153	-251.800	93.788	407.814	-244.713	-417.930	179.317	-164.808	118.154	55.318	-351.595	-387.811	157.500	-229.895	119.805	74.777	-274.057	-141.152	1324.234	-276.281	-6.831	1265.996	-243.756	-10.396	1267.334	-326.497	-25.805	1260.226	-296.935	31.320	1190.421	-299.058	54.159	518.773	-80.375	199.915	652.267	-318.581	25.005	538.672	-111.683	154.904	650.585	-336.353	-2.770	466.407	-119.310	166.984	577.977	-329.280	-243.843	190.365	-141.033	120.785	155.974	-422.880	-266.531	223.330	-162.905	116.529	171.374	-378.549	-402.076	64.226	-204.210	233.883	48.408	-324.965
	3	0.13333	-15.176	757.355	-283.756	-44.085	755.168	-206.788	-26.303	766.329	-360.994	-91.969	374.220	-170.877	111.942	425.236	-333.264	-387.167	171.701	-198.342	127.694	57.807	-313.185	89.748	835.119	-264.100	76.091	826.548	-145.672	103.405	843.690	-382.529	-157.506	898.995	-246.981	-156.223	901.633	-300.845	-101.771	382.087	-100.491	125.506	425.026	-403.466	-56.791	357.741	-247.790	94.185	411.154	-243.747	-399.314	184.781	-164.231	118.404	55.315	-351.496	-370.466	163.670	-229.828	120.900	74.878	-274.027	-129.055	1325.955	-277.005	5.243	1267.608	-244.315	2.161	1268.541	-327.713	-13.589	1261.625	-297.725	43.627	1191.714	-299.319	73.602	522.078	-79.705	209.359	651.488	-319.201	43.449	540.894	-110.663	164.858	650.381	-337.664	18.456	467.182	-117.304	174.489	577.664	-329.237	-225.074	191.453	-140.410	121.958	155.571	-422.996	-248.209	226.176	-162.495	118.094	171.277	-378.701	-385.094	69.093	-202.135	234.083	47.978	-324.782
	4	0.14167	-3.541	758.984	-285.339	-31.942	756.319	-208.198	-14.998	768.082	-362.454	-68.732	372.968	-169.361	116.230	425.311	-334.238	-367.959	176.899	-198.143	128.146	57.809	-313.206	101.351	836.875	-265.921	88.384	827.874	-147.879	114.317	845.877	-383.962	-145.933	899.687	-247.209	-144.818	902.953	-301.050	-78.639	381.046	-99.013	130.006	424.810	-404.396	-34.264	355.359	-243.351	95.830	412.924	-245.573	-379.758	189.874	-163.869	118.551	55.310	-351.442	-351.862	169.689	-230.047	122.463	74.565	-273.986	-116.968	1327.665	-277.823	17.193	1268.999	-245.058	14.374	1269.725	-329.060	-1.518	1263.132	-298.378	55.554	1192.864	-300.028	92.958	525.770	-79.213	218.458	650.121	-319.871	61.775	543.619	-110.010	175.753	651.129	-336.745	39.093	468.829	-115.371	182.393	576.270	-329.451	-205.378	192.624	-140.372	122.680	155.153	-423.143	-228.408	228.570	-162.152	119.535	170.642	-378.612	-365.969	73.906	-199.984	234.210	47.609	-324.692
	5	0.15000	7.703	760.570	-286.603	-20.153	757.486	-209.329	-4.055	769.806	-363.632	-45.121	372.109	-168.051	119.997	425.280	-335.165	-347.825	181.677	-198.189	128.585	57.817	-313.279	112.688	838.476	-267.487	100.397	829.070	-149.678	124.978	847.882	-385.295	-134.517	900.575	-247.473	-133.534	904.410	-301.288	-55.118	380.289	-97.728	133.849	424.473	-405.306	-11.455	354.876	-240.608	115.148	407.334	-241.275	-359.277	194.425	-163.712	118.624	55.312	-351.420	-332.188	173.830	-230.073	123.194	74.467	-274.008	-105.374	1329.350	-278.821	28.791	1270.152	-245.993	26.008	1271.269	-329.851	10.354	1264.702	-298.917	66.995	1194.180	-301.230	112.203	529.844	-78.938	227.248	648.201	-320.664	80.464	546.591	-109.541	180.306	646.469	-338.558	59.797	471.468	-114.096	191.033	574.571	-329.925	-184.765	193.842	-140.811	123.071	154.742	-423.315	-207.435	230.036	-162.620	120.161	170.363	-378.657	-344.861	78.454	-197.905	234.279	47.282	-324.685
	6	0.15833	18.595	762.098	-287.557	-8.691	758.671	-210.177	6.585	771.481	-364.524	-21.284	371.690	-166.949	123.440	425.193	-336.003	-326.770	185.862	-198.426	129.011	57.827	-313.386	123.800	839.910	-268.783	112.146	830.137	-151.028	135.455	849.682	-386.538	-123.230	901.662	-247.755	-122.357	905.991	-301.563	-31.324	379.871	-96.631	137.210	424.062	-406.155	10.973	355.732	-238.654	110.667	408.858	-242.293	-337.901	198.283	-163.726	118.646	55.329	-351.420	-311.826	177.667	-230.431	123.114	74.511	-274.033	-93.858	1330.799	-279.787	40.198	1271.896	-246.096	37.692	1273.109	-329.717	22.066	1266.264	-299.283	78.745	1196.071	-301.181	131.318	534.282	-78.899	235.762	645.811	-321.639	98.808	550.079	-109.008	188.229	644.419	-339.571	80.413	474.766	-113.191	195.238	571.764	-330.868	-163.269	195.065	-141.615	123.251	154.360	-423.509	-186.358	231.773	-163.453	120.085	170.313	-378.740	-321.968	82.566	-196.045	234.300	46.990	-324.751
	7	0.16667	29.203	763.557	-288.226	2.493	759.876	-210.754	16.999	773.086	-365.142	2.623	371.749	-166.054	126.719	425.088	-336.730	-304.822	189.309	-198.797	129.414	57.837	-313.510	134.741	841.184	-269.812	123.665	831.096	-151.925	145.817	851.272	-387.699	-112.046	902.939	-248.043	-111.272	907.673	-301.875	-7.388	379.845	-95.723	140.237	423.620	-406.925	32.737	356.419	-236.306	104.723	410.807	-247.840	-315.672	201.324	-163.866	118.638	55.360	-351.431	-289.875	181.152	-231.003	123.026	74.262	-273.983	-82.138	1332.278	-280.901	51.626	1274.085	-245.749	49.394	1275.083	-329.566	33.595	1267.903	-299.702	90.616	1198.258	-300.605	150.291	539.061	-79.105	244.029	643.061	-322.832	116.798	553.885	-108.861	197.451	643.157	-340.598	100.550	478.014	-112.437	199.909	569.143	-333.004	-140.940	196.251	-142.685	123.341	154.032	-423.720	-163.331	234.157	-164.646	119.912	169.958	-378.539	-297.490	86.120	-194.532	234.290	46.737	-324.878
	8	0.17500	39.636	764.944	-288.626	13.465	761.103	-211.082	27.260	774.613	-365.509	26.454	372.310	-165.373	129.947	424.992	-337.345	-282.029	191.908	-199.247	129.784	57.841	-313.635	145.566	842.315	-270.596	135.008	831.975	-152.401	156.125	852.656	-388.792	-100.940	904.394	-248.327	-100.269	909.429	-302.224	16.562	380.252	-95.007	143.048	423.179	-407.611	54.323	358.749	-235.710	103.911	410.364	-252.624	-292.643	203.456	-164.086	118.622	55.404	-351.447	-266.288	183.709	-231.549	122.838	74.085	-273.932	-70.635	1334.019	-281.894	62.867	1275.917	-245.972	60.846	1276.569	-329.667	44.955	1269.586	-300.273	101.931	1199.831	-300.353	169.115	544.152	-79.553	252.077	640.079	-324.256	134.546	558.017	-108.707	205.044	640.920	-341.492	120.593	481.830	-112.400	204.563	566.331	-335.468	-117.835	197.363	-143.938	123.453	153.779	-423.945	-138.089	236.044	-165.793	119.736	169.600	-378.410	-271.608	89.037	-193.453	234.263	46.529	-325.049
	9	0.18333	49.999	766.258	-288.788	24.296	762.356	-211.188	37.439	776.057	-365.655	50.093	373.377	-164.908	133.193	424.918	-337.864	-258.447	193.581	-199.731	130.116	57.836	-313.751	156.332	843.330	-271.171	146.236	832.806	-152.516	166.428	853.855	-389.826	-89.894	906.009	-248.605	-89.336	911.233	-302.605	40.418	381.113	-94.489	145.726	422.767	-408.224	76.428	361.124	-235.288	108.406	408.851	-254.129	-268.871	204.617	-164.350	118.623	55.455	-351.467	-245.815	184.475	-232.027	122.665	74.440	-274.005	-59.382	1335.851	-282.599	74.164	1277.182	-246.549	72.630	1277.322	-328.405	56.238	1271.255	-300.808	113.210	1200.594	-299.323	187.786	549.527	-80.231	259.936	636.987	-325.902	152.645	562.222	-109.037	211.748	638.242	-343.048	140.671	486.087	-112.581	210.327	563.959	-337.350	-94.017	198.376	-145.309	123.684	153.619	-424.178	-120.096	236.237	-167.072	119.759	169.889	-378.709	-244.472	91.275	-192.849	234.242	46.375	-325.245
	10	0.19167	60.377	767.511	-288.748	35.050	763.640	-211.103	47.585	777.420	-365.614	73.466	374.927	-164.660	136.488	424.876	-338.308	-234.127	194.275	-200.222	130.416	57.824	-313.852	167.078	844.260	-271.581	157.405	833.626	-152.349	176.751	854.893	-390.812	-78.895	907.759	-248.879	-78.471	913.064	-303.016	64.102	382.424	-94.174	148.323	422.403	-408.779	100.291	361.685	-234.178	119.430	405.505	-252.910	-244.406	204.773	-164.636	118.665	55.511	-351.492	-218.217	187.076	-232.984	123.462	74.980	-274.183	-47.961	1337.654	-283.188	85.508	1278.421	-247.031	83.046	1280.173	-333.184	67.460	1272.835	-301.291	123.925	1202.856	-303.769	206.296	555.156	-81.125	267.629	633.892	-327.742	170.786	566.077	-110.339	217.366	635.422	-345.343	160.864	490.108	-112.904	217.486	562.075	-338.856	-69.544	199.270	-146.742	124.100	153.559	-424.411	-89.122	238.179	-167.267	120.654	170.468	-379.205	-216.205	92.820	-192.710	234.247	46.279	-325.448
	11	0.20000	70.804	768.718	-288.547	45.774	764.961	-210.863	57.728	778.706	-365.423	96.540	376.917	-164.624	139.833	424.869	-338.700	-209.113	193.962	-200.705	130.705	57.808	-313.936	177.827	845.137	-271.873	168.555	834.475	-151.992	187.099	855.798	-391.755	-67.936	909.614	-249.154	-67.670	914.899	-303.444	87.574	384.153	-94.058	150.869	422.098	-409.289	125.277	363.665	-235.090	121.019	406.767	-253.943	-219.293	203.914	-164.934	118.771	55.569	-351.523	-194.954	187.047	-233.682	124.735	75.418	-274.397	-36.337	1339.290	-283.719	96.701	1279.877	-247.131	93.396	1282.064	-337.477	78.597	1274.293	-301.742	134.417	1204.496	-306.572	224.633	561.004	-82.219	275.174	630.876	-329.740	188.793	570.555	-111.811	226.116	633.283	-346.684	181.259	494.518	-114.086	223.828	560.141	-340.262	-44.472	200.030	-148.188	124.729	153.597	-424.635	-67.646	238.956	-168.444	122.121	170.577	-379.851	-186.908	93.678	-192.978	234.295	46.235	-325.644
